<?xml version="1.0" encoding="UTF-8"?>
<svg id="Layer_1" data-name="Layer 1" xmlns="http://www.w3.org/2000/svg" viewBox="0 0 1080 1080">
  <defs>
    <style>
      .cls-1 {
        fill: #0d0d0d;
      }
    </style>
  </defs>
  <path class="cls-1" d="M865.19,805.57c-1.39,0-2.56.49-3.5,1.48-.94.99-1.41,2.4-1.41,4.23s.46,3.24,1.38,4.23c.92.99,2.07,1.48,3.46,1.48.88,0,1.71-.21,2.49-.64.78-.43,1.4-1.07,1.86-1.93s.7-1.9.7-3.13c0-1.83-.48-3.24-1.44-4.23s-2.14-1.48-3.53-1.48Z"/>
  <path class="cls-1" d="M530.08,768.87c-4.72,0-8.68,1.67-11.86,5.02-3.19,3.35-4.78,8.13-4.78,14.34s1.55,11,4.66,14.34c3.11,3.35,7.02,5.02,11.75,5.02,2.99,0,5.8-.73,8.44-2.18,2.64-1.46,4.74-3.64,6.32-6.55,1.57-2.91,2.36-6.45,2.36-10.62,0-6.21-1.63-11-4.9-14.34-3.27-3.34-7.26-5.02-11.98-5.02Z"/>
  <path class="cls-1" d="M591.7,24.68h-94.55c-72.94,6.62-141.49,28.41-202.49,62.18,22.06,27.84,35.28,62.94,35.3,100.93.02,25.04-5.61,48.76-15.67,69.97,22.68-21.88,53.79-35.07,88-34.17,64.89,1.71,117.55,54.83,118.74,119.73.47,25.72-7.04,49.65-20.19,69.53,19.18-14.34,43.1-22.7,68.98-22.31,60.23.91,109.5,49.98,110.64,110.21,1.21,63.74-50.66,115.66-114.37,114.56H168.94v278.12c94.15,99.69,227.55,161.9,375.49,161.9,285.2,0,516.39-231.2,516.39-516.39,0-269.26-206.08-490.38-469.12-514.25ZM258.36,802.68c2.75,3.42,6.49,5.13,11.21,5.13,6.69,0,11.06-2.99,13.1-8.97h17.82c-1.81,7.08-5.39,12.71-10.74,16.88-5.35,4.17-12.04,6.26-20.07,6.26-6.3,0-11.88-1.4-16.76-4.19-4.88-2.79-8.7-6.73-11.45-11.8-2.76-5.08-4.13-11-4.13-17.77s1.38-12.69,4.13-17.76c2.75-5.08,6.57-9.01,11.45-11.8,4.88-2.79,10.46-4.19,16.76-4.19,8.1,0,14.81,2.03,20.13,6.08,5.31,4.05,8.87,9.74,10.68,17.06h-17.82c-.94-2.83-2.54-5.06-4.78-6.67-2.24-1.61-5.02-2.42-8.32-2.42-4.72,0-8.46,1.71-11.21,5.13-2.76,3.42-4.13,8.28-4.13,14.58s1.38,11.04,4.13,14.46ZM374.39,820.92h-16.64v-8.26c-2.12,2.83-4.9,5.06-8.32,6.67-3.42,1.61-7.14,2.42-11.15,2.42-5.12,0-9.64-1.08-13.57-3.25-3.94-2.16-7.02-5.35-9.27-9.56-2.24-4.21-3.36-9.22-3.36-15.05v-38.36h16.53v36c0,5.19,1.3,9.19,3.9,11.98,2.6,2.79,6.14,4.19,10.62,4.19s8.15-1.4,10.74-4.19c2.6-2.79,3.9-6.79,3.9-11.98v-36h16.64v65.39ZM438.31,812.42c-2.09,2.99-5.08,5.33-8.97,7.02-3.9,1.69-8.44,2.54-13.63,2.54s-10.15-.96-14.4-2.89c-4.25-1.93-7.61-4.54-10.09-7.85-2.48-3.3-3.84-6.96-4.07-10.98h16.64c.31,2.52,1.55,4.6,3.72,6.26,2.16,1.65,4.86,2.48,8.09,2.48s5.61-.63,7.38-1.89c1.77-1.26,2.66-2.87,2.66-4.84,0-2.12-1.08-3.72-3.25-4.78-2.17-1.06-5.61-2.22-10.33-3.48-4.88-1.18-8.87-2.4-11.98-3.66-3.11-1.26-5.78-3.19-8.03-5.78-2.24-2.6-3.36-6.1-3.36-10.5,0-3.62,1.04-6.92,3.13-9.92,2.08-2.99,5.08-5.35,8.97-7.08,3.9-1.73,8.48-2.6,13.75-2.6,7.79,0,14.01,1.95,18.65,5.84,4.64,3.9,7.2,9.15,7.67,15.76h-15.82c-.24-2.6-1.32-4.66-3.25-6.2-1.93-1.54-4.51-2.3-7.73-2.3-2.99,0-5.29.55-6.91,1.65-1.61,1.1-2.42,2.64-2.42,4.6,0,2.2,1.1,3.88,3.31,5.02,2.2,1.14,5.62,2.3,10.27,3.48,4.72,1.18,8.62,2.4,11.69,3.66,3.07,1.26,5.73,3.21,7.97,5.84,2.24,2.64,3.4,6.12,3.48,10.45,0,3.78-1.04,7.16-3.13,10.15ZM488.89,769.1h-14.64v31.63c0,2.2.53,3.8,1.59,4.78,1.06.99,2.85,1.48,5.37,1.48h7.67v13.93h-10.39c-13.93,0-20.89-6.77-20.89-20.3v-31.52h-7.79v-13.57h7.79v-16.17h16.64v16.17h14.64v13.57ZM559.41,805.93c-3.03,5.12-7.12,9.07-12.28,11.86-5.15,2.79-10.92,4.19-17.29,4.19s-11.96-1.4-17-4.19c-5.04-2.79-8.99-6.75-11.86-11.86-2.87-5.11-4.31-11.02-4.31-17.71s1.48-12.59,4.43-17.71c2.95-5.12,6.98-9.07,12.1-11.86,5.11-2.79,10.82-4.19,17.12-4.19s12,1.4,17.11,4.19c5.12,2.79,9.15,6.75,12.1,11.86,2.95,5.12,4.43,11.02,4.43,17.71s-1.52,12.59-4.54,17.71ZM684.12,820.92h-16.53v-36.12c0-5.11-1.3-9.03-3.9-11.75-2.6-2.71-6.14-4.07-10.62-4.07s-8.05,1.36-10.68,4.07c-2.64,2.71-3.95,6.63-3.95,11.75v36.12h-16.53v-36.12c0-5.11-1.3-9.03-3.9-11.75s-6.14-4.07-10.62-4.07-8.17,1.36-10.8,4.07c-2.64,2.71-3.96,6.63-3.96,11.75v36.12h-16.53v-65.39h16.53v7.91c2.12-2.75,4.86-4.92,8.2-6.49,3.34-1.57,7.02-2.36,11.04-2.36,5.12,0,9.68,1.08,13.69,3.25,4.01,2.17,7.12,5.25,9.33,9.27,2.12-3.78,5.21-6.81,9.27-9.09,4.05-2.28,8.44-3.42,13.16-3.42,8.03,0,14.5,2.46,19.42,7.38,4.92,4.92,7.38,11.79,7.38,20.6v38.36ZM716.34,820.92h-16.53v-65.39h16.53v65.39ZM715.46,744.96c-1.93,1.85-4.35,2.77-7.26,2.77s-5.33-.92-7.26-2.77c-1.93-1.85-2.89-4.15-2.89-6.91s.96-5.06,2.89-6.91c1.93-1.85,4.35-2.77,7.26-2.77s5.33.93,7.26,2.77c1.93,1.85,2.89,4.15,2.89,6.91s-.96,5.06-2.89,6.91ZM794.96,820.92h-16.53v-36.12c0-5.19-1.3-9.19-3.9-11.98-2.6-2.79-6.14-4.19-10.62-4.19s-8.17,1.4-10.8,4.19c-2.64,2.79-3.96,6.79-3.96,11.98v36.12h-16.53v-65.39h16.53v8.14c2.2-2.83,5.02-5.06,8.44-6.67,3.42-1.61,7.18-2.42,11.27-2.42,7.79,0,14.08,2.46,18.89,7.38,4.8,4.92,7.2,11.79,7.2,20.6v38.36ZM825.17,818.97c-1.89,1.85-4.29,2.77-7.2,2.77s-5.45-.92-7.38-2.77c-1.93-1.85-2.89-4.15-2.89-6.91s.96-5.06,2.89-6.91c1.93-1.85,4.39-2.77,7.38-2.77s5.31.93,7.2,2.77c1.89,1.85,2.83,4.15,2.83,6.91s-.94,5.06-2.83,6.91ZM840.54,815.54c.81,1.01,1.92,1.51,3.31,1.51,1.97,0,3.26-.88,3.86-2.65h5.26c-.53,2.09-1.59,3.75-3.17,4.98s-3.55,1.84-5.92,1.84c-1.86,0-3.5-.41-4.94-1.24-1.44-.82-2.56-1.98-3.38-3.48-.81-1.5-1.22-3.24-1.22-5.24s.41-3.74,1.22-5.24c.81-1.5,1.94-2.66,3.38-3.48,1.44-.82,3.09-1.24,4.94-1.24,2.39,0,4.37.6,5.93,1.79,1.57,1.2,2.62,2.87,3.15,5.03h-5.26c-.28-.83-.75-1.49-1.41-1.97s-1.48-.71-2.45-.71c-1.39,0-2.49.5-3.31,1.51-.81,1.01-1.22,2.44-1.22,4.3s.41,3.25,1.22,4.26ZM873.84,816.5c-.89,1.51-2.1,2.67-3.62,3.5-1.52.82-3.22,1.24-5.1,1.24s-3.53-.41-5.01-1.24c-1.49-.82-2.65-1.99-3.5-3.5-.85-1.51-1.27-3.25-1.27-5.22s.43-3.71,1.3-5.22c.87-1.51,2.06-2.67,3.57-3.5,1.51-.82,3.19-1.24,5.05-1.24s3.54.41,5.05,1.24c1.51.82,2.7,1.99,3.57,3.5.87,1.51,1.31,3.25,1.31,5.22s-.45,3.71-1.34,5.22Z"/>
</svg>