<?xml version="1.0" encoding="UTF-8"?>
<svg id="Layer_1" data-name="Layer 1" xmlns="http://www.w3.org/2000/svg" viewBox="0 0 16 16">
  <defs>
    <style>
      .cls-1 {
        fill: #0d0d0d;
      }
    </style>
  </defs>
  <path class="cls-1" d="M12.88,12.04s-.04,0-.05.02c-.01.02-.02.04-.02.06s0,.05.02.06c.01.02.03.02.05.02.01,0,.03,0,.04,0,.01,0,.02-.02.03-.03s.01-.03.01-.05c0-.03,0-.05-.02-.06s-.03-.02-.05-.02Z"/>
  <path class="cls-1" d="M7.77,11.48c-.07,0-.13.03-.18.08-.05.05-.07.12-.07.22s.02.17.07.22c.05.05.11.08.18.08.05,0,.09-.01.13-.03.04-.02.07-.06.1-.1.02-.04.04-.1.04-.16,0-.09-.02-.17-.07-.22-.05-.05-.11-.08-.18-.08Z"/>
  <path class="cls-1" d="M8.71.15h-1.44c-1.11.1-2.15.43-3.08.95.34.42.54.96.54,1.54,0,.38-.09.74-.24,1.07.35-.33.82-.53,1.34-.52.99.03,1.79.83,1.81,1.82,0,.39-.11.76-.31,1.06.29-.22.66-.35,1.05-.34.92.01,1.67.76,1.68,1.68.02.97-.77,1.76-1.74,1.74H2.27v4.23c1.43,1.52,3.46,2.47,5.72,2.47,4.34,0,7.86-3.52,7.86-7.86C15.85,3.88,12.72.51,8.71.15ZM3.63,12c.04.05.1.08.17.08.1,0,.17-.05.2-.14h.27c-.03.11-.08.19-.16.26-.08.06-.18.1-.31.1-.1,0-.18-.02-.26-.06-.07-.04-.13-.1-.17-.18-.04-.08-.06-.17-.06-.27s.02-.19.06-.27c.04-.08.1-.14.17-.18.07-.04.16-.06.26-.06.12,0,.23.03.31.09.08.06.14.15.16.26h-.27s-.04-.08-.07-.1c-.03-.02-.08-.04-.13-.04-.07,0-.13.03-.17.08-.04.05-.06.13-.06.22s.02.17.06.22ZM5.4,12.27h-.25v-.13s-.07.08-.13.1c-.05.02-.11.04-.17.04-.08,0-.15-.02-.21-.05-.06-.03-.11-.08-.14-.15-.03-.06-.05-.14-.05-.23v-.58h.25v.55c0,.08.02.14.06.18.04.04.09.06.16.06s.12-.02.16-.06c.04-.04.06-.1.06-.18v-.55h.25v1ZM6.38,12.14s-.08.08-.14.11c-.06.03-.13.04-.21.04s-.15-.01-.22-.04c-.06-.03-.12-.07-.15-.12-.04-.05-.06-.11-.06-.17h.25s.02.07.06.1c.03.03.07.04.12.04s.09,0,.11-.03c.03-.02.04-.04.04-.07,0-.03-.02-.06-.05-.07-.03-.02-.09-.03-.16-.05-.07-.02-.14-.04-.18-.06-.05-.02-.09-.05-.12-.09-.03-.04-.05-.09-.05-.16,0-.06.02-.11.05-.15.03-.05.08-.08.14-.11.06-.03.13-.04.21-.04.12,0,.21.03.28.09.07.06.11.14.12.24h-.24s-.02-.07-.05-.09c-.03-.02-.07-.04-.12-.04-.05,0-.08,0-.11.03-.02.02-.04.04-.04.07,0,.03.02.06.05.08.03.02.09.04.16.05.07.02.13.04.18.06.05.02.09.05.12.09.03.04.05.09.05.16,0,.06-.02.11-.05.15ZM7.15,11.48h-.22v.48s0,.06.02.07c.02.02.04.02.08.02h.12v.21h-.16c-.21,0-.32-.1-.32-.31v-.48h-.12v-.21h.12v-.25h.25v.25h.22v.21ZM8.22,12.05c-.05.08-.11.14-.19.18-.08.04-.17.06-.26.06s-.18-.02-.26-.06c-.08-.04-.14-.1-.18-.18-.04-.08-.07-.17-.07-.27s.02-.19.07-.27c.04-.08.11-.14.18-.18.08-.04.16-.06.26-.06s.18.02.26.06c.08.04.14.1.18.18.04.08.07.17.07.27s-.02.19-.07.27ZM10.12,12.27h-.25v-.55c0-.08-.02-.14-.06-.18-.04-.04-.09-.06-.16-.06s-.12.02-.16.06c-.04.04-.06.1-.06.18v.55h-.25v-.55c0-.08-.02-.14-.06-.18s-.09-.06-.16-.06-.12.02-.16.06c-.04.04-.06.1-.06.18v.55h-.25v-1h.25v.12s.07-.07.12-.1c.05-.02.11-.04.17-.04.08,0,.15.02.21.05.06.03.11.08.14.14.03-.06.08-.1.14-.14.06-.03.13-.05.2-.05.12,0,.22.04.3.11.07.07.11.18.11.31v.58ZM10.61,12.27h-.25v-1h.25v1ZM10.6,11.12s-.07.04-.11.04-.08-.01-.11-.04c-.03-.03-.04-.06-.04-.11s.01-.08.04-.11c.03-.03.07-.04.11-.04s.08.01.11.04c.03.03.04.06.04.11s-.01.08-.04.11ZM11.81,12.27h-.25v-.55c0-.08-.02-.14-.06-.18-.04-.04-.09-.06-.16-.06s-.12.02-.16.06c-.04.04-.06.1-.06.18v.55h-.25v-1h.25v.12s.08-.08.13-.1c.05-.02.11-.04.17-.04.12,0,.21.04.29.11.07.07.11.18.11.31v.58ZM12.27,12.24s-.07.04-.11.04-.08-.01-.11-.04c-.03-.03-.04-.06-.04-.11s.01-.08.04-.11c.03-.03.07-.04.11-.04s.08.01.11.04c.03.03.04.06.04.11s-.01.08-.04.11ZM12.5,12.19s.03.02.05.02c.03,0,.05-.01.06-.04h.08s-.02.06-.05.08-.05.03-.09.03c-.03,0-.05,0-.08-.02-.02-.01-.04-.03-.05-.05-.01-.02-.02-.05-.02-.08s0-.06.02-.08c.01-.02.03-.04.05-.05.02-.01.05-.02.08-.02.04,0,.07,0,.09.03.02.02.04.04.05.08h-.08s-.01-.02-.02-.03-.02-.01-.04-.01c-.02,0-.04,0-.05.02-.01.02-.02.04-.02.07s0,.05.02.06ZM13.01,12.21s-.03.04-.06.05c-.02.01-.05.02-.08.02s-.05,0-.08-.02c-.02-.01-.04-.03-.05-.05-.01-.02-.02-.05-.02-.08s0-.06.02-.08c.01-.02.03-.04.05-.05.02-.01.05-.02.08-.02s.05,0,.08.02c.02.01.04.03.05.05.01.02.02.05.02.08s0,.06-.02.08Z"/>
</svg>